# xmcd
#
# Track frame offsets:
# 150
# 21052
# 40359
# 60686
# 85390
# 106435
# 127994
# 145076
# 162941
# 183290
# 205777
# 220877
# 238161
# 255991
# 274463
# 295130
#
# Disc length: 4159 seconds
#
#
# Revision: 2
# Processed by: cddbd v1.5.2PL0 Copyright (c) Steve Scherf et al.
# Submitted via: FreeRIP 2.951 
#
DISCID=eb103d10
DTITLE=陳慧嫻 - 32 Best of Songs Disc 1
DYEAR=1900
DGENRE=
TTITLE0=二人時間
TTITLE1=奇妙旅程
TTITLE2=禮物
TTITLE3=緣了就是完
TTITLE4=留戀
TTITLE5=心滿意足
TTITLE6=今天夜媮`下雨
TTITLE7=飄雪
TTITLE8=夜機
TTITLE9=千千闕歌
TTITLE10=地球大追蹤
TTITLE11=傻女
TTITLE12=花店
TTITLE13=玻璃窗的愛
TTITLE14=與淚抱擁
TTITLE15=跳舞街
EXTD=
EXTT0=
EXTT1=
EXTT2=
EXTT3=
EXTT4=
EXTT5=
EXTT6=
EXTT7=
EXTT8=
EXTT9=
EXTT10=
EXTT11=
EXTT12=
EXTT13=
EXTT14=
EXTT15=
PLAYORDER=
